<?xml version="1.0" encoding="iso-8859-1"?>
<!-- Generator: Adobe Illustrator 16.0.0, SVG Export Plug-In . SVG Version: 6.00 Build 0)  -->
<!DOCTYPE svg PUBLIC "-//W3C//DTD SVG 1.1//EN" "http://www.w3.org/Graphics/SVG/1.1/DTD/svg11.dtd">
<svg version="1.1" id="Capa_1" xmlns="http://www.w3.org/2000/svg" xmlns:xlink="http://www.w3.org/1999/xlink" x="0px" y="0px"
	 width="516.069px" height="516.069px" viewBox="0 0 516.069 516.069" style="enable-background:new 0 0 516.069 516.069;"
	 xml:space="preserve">
<g>
	<path d="M289.544,1.991l-74.577,129.132h267.532C446.312,65.22,373.904,11.416,289.544,1.991z M52.053,102.727l74.542,129.149
		L260.36,0.19C185.189-1.428,102.395,34.375,52.053,102.727z M20.544,358.77l149.118,0.018L35.896,127.102
		C-3.088,191.388-13.483,281.002,20.544,358.77z M226.525,514.077l74.577-129.132H33.571
		C69.757,450.849,142.166,504.652,226.525,514.077z M464.017,413.342l-74.542-129.149L255.709,515.878
		C330.88,517.496,413.675,481.693,464.017,413.342z M495.525,157.299l-149.118-0.018l133.766,231.686
		C519.157,324.681,529.553,235.066,495.525,157.299z"/>
</g>
<g>
</g>
<g>
</g>
<g>
</g>
<g>
</g>
<g>
</g>
<g>
</g>
<g>
</g>
<g>
</g>
<g>
</g>
<g>
</g>
<g>
</g>
<g>
</g>
<g>
</g>
<g>
</g>
<g>
</g>
</svg>
